# xmcd
#
# Track frame offsets: 
#        150
#        13403
#        25291
#        39398
#        53407
#        66721
#        79050
#        91236
#        102659
#        114157
#        126827
#        140150
#        153481
#        167116
#        180513
#        196103
#        209436
#        223156
#
# Disc length: 3148 seconds
#
# Revision: 1
# Processed by: cddbd v1.5.2PL0 Copyright (c) Steve Scherf et al.
# Submitted via: ExactAudioCopy v0.95b2
#
DISCID=050c4a12
DTITLE=Lucille Bogan and Walter Roland - The Essential CD 2
DYEAR=2002
DGENRE=Blues
TTITLE0=Stew Meat Blues 
TTITLE1=Tired as I Can Be
TTITLE2=They Ain't Walking No More
TTITLE3=Alley Boogie 
TTITLE4=T. N. and O. Blues
TTITLE5=Hungry Mans Scuffle
TTITLE6=You Got to Die Some Day
TTITLE7=Big Mama
TTITLE8=Lonesome Midnight Blues
TTITLE9=Rolling Water
TTITLE10=Drinking Blues
TTITLE11=Penniless Blues
TTITLE12=Bo Easy Blues
TTITLE13=Sail on Little Girl No. 2
TTITLE14=Coffee Grindin' Blues
TTITLE15=Pay Roll Blues
TTITLE16=T. Model Blues
TTITLE17=Boogan Ways Blues
EXTD=william hale
EXTT0=
EXTT1=
EXTT2=
EXTT3=
EXTT4=
EXTT5=
EXTT6=
EXTT7=
EXTT8=
EXTT9=
EXTT10=
EXTT11=
EXTT12=
EXTT13=
EXTT14=
EXTT15=
EXTT16=
EXTT17=
PLAYORDER=
